HIERARCHY
ROOT Hips
{
	OFFSET 0.000000 0.000000 0.000000
	CHANNELS 6 Xposition Yposition Zposition Xrotation Yrotation Zrotation
	JOINT LeftUpLeg_virtual
	{
		OFFSET 0.000000 0.000000 0.000000
		CHANNELS 3 Xrotation Yrotation Zrotation
		JOINT LeftUpLeg
		{
			OFFSET 13.026900 -6.336304 -1.092800
			CHANNELS 3 Xrotation Yrotation Zrotation
			JOINT LeftLeg
			{
				OFFSET 0.524474 -46.096886 9.782700
				CHANNELS 3 Xrotation Yrotation Zrotation
				JOINT LeftFoot
				{
					OFFSET -0.524474 -53.427422 -12.948200
					CHANNELS 3 Xrotation Yrotation Zrotation
					JOINT LeftToeBase
					{
						OFFSET 0.192200 -14.009700 16.364100
						CHANNELS 3 Xrotation Yrotation Zrotation
						JOINT LeftToe_End
						{
							OFFSET -1.784700 -0.561700 9.474800
							CHANNELS 3 Xrotation Yrotation Zrotation
							End Site
							{
								OFFSET 0 0 0
							}
						}
					}
				}
			}
		}
	}
	JOINT RightUpLeg_virtual
	{
		OFFSET 0.000000 0.000000 0.000000
		CHANNELS 3 Xrotation Yrotation Zrotation
		JOINT RightUpLeg
		{
			OFFSET -12.883000 -6.336304 -1.092800
			CHANNELS 3 Xrotation Yrotation Zrotation
			JOINT RightLeg
			{
				OFFSET -0.524587 -46.096825 9.782800
				CHANNELS 3 Xrotation Yrotation Zrotation
				JOINT RightFoot
				{
					OFFSET 0.524587 -53.427383 -12.948300
					CHANNELS 3 Xrotation Yrotation Zrotation
					JOINT RightToeBase
					{
						OFFSET -0.192200 -14.009700 16.364100
						CHANNELS 3 Xrotation Yrotation Zrotation
						JOINT RightToe_End
						{
							OFFSET 1.784700 -0.561700 9.474800
							CHANNELS 3 Xrotation Yrotation Zrotation
							End Site
							{
								OFFSET 0 0 0
							}
						}
					}
				}
			}
		}
	}
	JOINT Spine_virtual
	{
		OFFSET 0.000000 0.000000 0.000000
		CHANNELS 3 Xrotation Yrotation Zrotation
		JOINT Spine
		{
			OFFSET 0.072000 7.257294 -0.789700
			CHANNELS 3 Xrotation Yrotation Zrotation
			JOINT Spine1
			{
				OFFSET 0.000000 12.508769 -0.658067
				CHANNELS 3 Xrotation Yrotation Zrotation
				JOINT Spine1_split
				{
					OFFSET 0.000000 12.508769 -0.658067
					CHANNELS 3 Xrotation Yrotation Zrotation
					JOINT Spine2
					{
						OFFSET 0.000000 12.508769 -0.658067
						CHANNELS 3 Xrotation Yrotation Zrotation
						JOINT Neck_virtual
						{
							OFFSET 0.000000 0.000000 0.000000
							CHANNELS 3 Xrotation Yrotation Zrotation
							JOINT Neck
							{
								OFFSET 0.000000 14.033295 7.520400
								CHANNELS 3 Xrotation Yrotation Zrotation
								JOINT Head
								{
									OFFSET 0.000000 8.198502 5.703100
									CHANNELS 3 Xrotation Yrotation Zrotation
									JOINT HeadTop_End
									{
										OFFSET 0.000000 17.760803 13.332701
										CHANNELS 3 Xrotation Yrotation Zrotation
										End Site
										{
											OFFSET 0 0 0
										}
									}
								}
							}
						}
						JOINT LeftShoulder_virtual
						{
							OFFSET 0.000000 0.000000 0.000000
							CHANNELS 3 Xrotation Yrotation Zrotation
							JOINT LeftShoulder
							{
								OFFSET 6.292450 5.785301 -0.669000
								CHANNELS 3 Xrotation Yrotation Zrotation
								JOINT LeftShoulder_split
								{
									OFFSET 6.292450 5.785301 -0.669000
									CHANNELS 3 Xrotation Yrotation Zrotation
									JOINT LeftArm
									{
										OFFSET 13.907140 -6.093903 1.965100
										CHANNELS 3 Xrotation Yrotation Zrotation
										JOINT LeftForeArm
										{
											OFFSET 34.140198 0.000000 0.000000
											CHANNELS 3 Xrotation Yrotation Zrotation
											JOINT LeftHand
											{
												OFFSET 40.960209 0.000000 0.000000
												CHANNELS 3 Xrotation Yrotation Zrotation
												End Site
												{
													OFFSET 0 0 0
												}
											}
										}
									}
								}
							}
						}
						JOINT RightShoulder_virtual
						{
							OFFSET 0.000000 0.000000 0.000000
							CHANNELS 3 Xrotation Yrotation Zrotation
							JOINT RightShoulder
							{
								OFFSET -6.292450 5.785301 -0.669000
								CHANNELS 3 Xrotation Yrotation Zrotation
								JOINT RightShoulder_split
								{
									OFFSET -6.292450 5.785301 -0.669000
									CHANNELS 3 Xrotation Yrotation Zrotation
									JOINT RightArm
									{
										OFFSET -13.907140 -6.093903 1.965100
										CHANNELS 3 Xrotation Yrotation Zrotation
										JOINT RightForeArm
										{
											OFFSET -34.140198 0.000000 0.000000
											CHANNELS 3 Xrotation Yrotation Zrotation
											JOINT RightHand
											{
												OFFSET -40.960209 0.000000 0.000000
												CHANNELS 3 Xrotation Yrotation Zrotation
												End Site
												{
													OFFSET 0 0 0
												}
											}
										}
									}
								}
							}
						}
					}
				}
			}
		}
	}
}
MOTION
Frames: 10
Frame Time: 0.03333333
0.240665 171.562866 22.595104 0.000000 0.000000 0.000000 7.465807 -38.714550 4.716504 -79.560810 -14.747077 19.481704 76.235525 0.379133 3.878636 3.562629 3.955999 -4.036386 -6.471798 1.455542 -1.407052 0.000000 0.000000 0.000000 8.156016 -40.411159 4.549516 -120.899785 -32.073534 -8.703483 99.709376 10.394576 -9.763907 38.450669 5.144580 22.650635 5.845268 2.316239 -1.196559 0.000000 0.000000 0.000000 7.516313 -39.629717 3.373511 30.659268 -5.146051 -7.099130 11.685304 1.294923 -3.383385 0.530909 1.064267 1.134451 0.000000 0.000000 0.000000 11.655767 1.203933 -2.259361 -6.739609 18.221471 -14.615676 -26.052809 12.584304 3.117466 0.000000 0.000000 0.000000 13.054471 1.412622 -3.002732 11.757710 -10.446905 0.238845 -0.609737 -3.195681 -4.057859 -54.804116 6.200749 1.086749 47.183022 -17.672225 30.634782 0.000000 0.000000 0.000000 14.030404 1.624844 -2.542808 17.496370 22.424011 -5.766748 0.576431 4.043794 2.081303 -34.431342 -14.579425 2.914830 -50.168381 50.217238 40.547029 0.000000 0.000000 0.000000 
0.274552 171.599365 22.546913 0.000000 0.000000 0.000000 7.494740 -38.507097 4.711764 -79.641201 -14.651167 19.513507 76.217616 0.431752 3.803613 3.679122 3.984571 -3.955816 -6.476555 1.458997 -1.445048 0.000000 0.000000 0.000000 8.191191 -40.399162 4.549857 -120.999738 -32.035486 -8.695992 99.722586 10.449502 -9.842624 38.458958 5.237923 22.647953 5.827917 2.315737 -1.203343 0.000000 0.000000 0.000000 7.556328 -39.548766 3.327826 30.572012 -5.203697 -7.113709 11.736537 1.247178 -3.389295 0.519096 1.106909 0.997049 0.000000 0.000000 0.000000 11.695442 1.187501 -2.270404 -6.948964 18.310996 -14.519725 -26.045909 12.522973 3.225528 0.000000 0.000000 0.000000 13.089083 1.388054 -2.957864 11.936287 -10.804324 1.065537 -0.768929 -3.068363 -3.674744 -56.182360 5.447716 1.517013 47.135696 -17.831025 30.694956 0.000000 0.000000 0.000000 14.085787 1.558322 -2.549186 17.588401 22.109324 -6.193723 0.760422 4.205228 1.803054 -34.968489 -14.690772 2.581939 -50.359251 50.607211 40.707285 0.000000 0.000000 0.000000 
0.382573 171.609894 22.431820 0.000000 0.000000 0.000000 7.504004 -38.107415 4.615050 -79.864104 -14.613822 19.463565 76.231933 0.440150 3.770980 3.916657 3.928732 -3.803868 -6.454600 1.452179 -1.446626 0.000000 0.000000 0.000000 8.211726 -40.194072 4.454319 -121.186025 -31.978953 -8.651964 99.782623 10.517422 -9.931391 38.578469 5.396298 22.742894 5.714458 2.296137 -1.141131 0.000000 0.000000 0.000000 7.673134 -39.357609 3.273608 30.462524 -5.247064 -7.186899 11.772222 1.216947 -3.427515 0.430784 1.137435 0.956338 0.000000 0.000000 0.000000 11.775053 1.209973 -2.309542 -7.129275 18.312806 -14.329305 -26.157651 12.406431 3.406143 0.000000 0.000000 0.000000 13.133308 1.413654 -2.927854 12.226728 -11.321837 2.477534 -0.647772 -2.669179 -3.535320 -57.726102 3.961611 2.252430 47.075942 -18.010615 30.678942 0.000000 0.000000 0.000000 14.140202 1.521226 -2.595403 17.870485 21.684044 -7.108294 0.927936 4.239784 1.825319 -35.885510 -14.952647 1.770906 -51.479945 51.464167 41.915573 0.000000 0.000000 0.000000 
0.529608 171.594116 22.323151 0.000000 0.000000 0.000000 7.488676 -37.631118 4.440462 -80.202936 -14.656087 19.343683 76.287080 0.387307 3.792874 4.236304 3.786995 -3.633706 -6.420885 1.437567 -1.412239 0.000000 0.000000 0.000000 8.199897 -39.880457 4.274537 -121.446146 -31.916142 -8.596670 99.904412 10.560118 -10.005989 38.743418 5.537689 22.890880 5.600613 2.261059 -1.020266 0.000000 0.000000 0.000000 7.856218 -39.114980 3.213252 30.345246 -5.271143 -7.300627 11.804136 1.201895 -3.479687 0.313707 1.107331 0.974085 0.000000 0.000000 0.000000 11.906568 1.263589 -2.367154 -7.256057 18.244697 -14.085287 -26.328873 12.250865 3.617423 0.000000 0.000000 0.000000 13.190799 1.471068 -2.919527 12.609928 -11.957916 4.251540 -0.395136 -2.261376 -3.683407 -59.111462 2.006579 2.912798 46.941462 -17.988152 30.496320 0.000000 0.000000 0.000000 14.189375 1.516918 -2.668004 18.294088 21.243577 -8.359685 1.064599 4.171181 2.005846 -36.959544 -15.223209 0.720252 -53.188845 52.517437 43.808181 0.000000 0.000000 0.000000 
0.687457 171.560181 22.243725 0.000000 0.000000 0.000000 7.462229 -37.144027 4.212810 -80.606075 -14.779382 19.179880 76.382436 0.293265 3.858662 4.578868 3.579977 -3.465554 -6.407902 1.421124 -1.353578 0.000000 0.000000 0.000000 8.144952 -39.540686 4.041837 -121.781931 -31.836393 -8.550522 100.116858 10.547296 -10.029527 38.893600 5.610083 23.043890 5.618472 2.218788 -0.862647 0.000000 0.000000 0.000000 8.064594 -38.861966 3.134216 30.243347 -5.272612 -7.426922 11.850470 1.192769 -3.532455 0.202839 1.013201 1.004383 0.000000 0.000000 0.000000 12.074847 1.318500 -2.424227 -7.311311 18.126745 -13.845857 -26.487738 12.089137 3.815617 0.000000 0.000000 0.000000 13.274427 1.530680 -2.929821 13.062481 -12.651295 6.173038 -0.149128 -2.040843 -3.959263 -60.213418 -0.296859 3.187815 46.782786 -17.709463 30.219619 0.000000 0.000000 0.000000 14.236308 1.532281 -2.740614 18.799114 20.924998 -9.745918 1.168037 4.083558 2.135722 -38.059402 -15.274260 -0.322769 -55.033170 53.498075 45.892198 0.000000 0.000000 0.000000 
0.834873 171.543274 22.175819 0.000000 0.000000 0.000000 7.422581 -36.716327 3.952339 -81.032613 -14.961587 19.017303 76.520406 0.202370 3.939165 4.906232 3.348477 -3.306819 -6.392804 1.409073 -1.299973 0.000000 0.000000 0.000000 8.060776 -39.276258 3.783480 -122.166594 -31.746665 -8.520953 100.427878 10.493898 -10.000193 39.042024 5.629631 23.202810 5.746388 2.180379 -0.698328 0.000000 0.000000 0.000000 8.261708 -38.688845 3.033290 30.181581 -5.250938 -7.540448 11.926469 1.175746 -3.574428 0.281694 0.966033 1.053211 0.000000 0.000000 0.000000 12.247669 1.349424 -2.468007 -7.302121 18.025977 -13.651029 -26.608744 11.952672 3.979930 0.000000 0.000000 0.000000 13.385748 1.563154 -2.955840 13.537896 -13.359272 7.975361 -0.033294 -2.121586 -4.343453 -61.029509 -2.595761 3.018494 46.653669 -17.247387 29.940373 0.000000 0.000000 0.000000 14.296872 1.548658 -2.807623 19.343767 20.837143 -11.111818 1.204812 3.989678 2.203199 -38.955294 -14.933047 -1.024715 -56.450632 54.208609 47.548160 0.000000 0.000000 0.000000 
0.954097 171.539612 22.154327 0.000000 0.000000 0.000000 7.360299 -36.440395 3.681412 -81.453127 -15.183263 18.890794 76.693127 0.148125 4.017298 5.202258 3.114072 -3.159946 -6.359638 1.405169 -1.268315 0.000000 0.000000 0.000000 7.966360 -39.117023 3.518341 -122.555232 -31.661878 -8.487307 100.790240 10.454515 -9.960233 39.200447 5.668704 23.432415 5.847936 2.153675 -0.560140 0.000000 0.000000 0.000000 8.431193 -38.604031 2.916134 30.182654 -5.205478 -7.620709 12.041669 1.152325 -3.599952 0.473439 0.982501 1.062635 0.000000 0.000000 0.000000 12.377642 1.346149 -2.496973 -7.254443 17.965506 -13.563127 -26.668947 11.858277 4.099048 0.000000 0.000000 0.000000 13.512066 1.553326 -2.997304 13.992060 -14.048972 9.483332 0.123722 -2.367410 -4.477036 -61.787831 -4.656336 2.430496 46.595492 -16.745474 29.751915 0.000000 0.000000 0.000000 14.387042 1.560029 -2.863430 19.873713 20.966615 -12.304503 1.242352 3.887949 2.187862 -39.567399 -14.030719 -1.213658 -57.130636 54.631429 48.411240 0.000000 0.000000 0.000000 
1.039222 171.538971 22.175236 0.000000 0.000000 0.000000 7.287785 -36.337173 3.434183 -81.837694 -15.429139 18.821155 76.884844 0.152212 4.080889 5.443421 2.888534 -3.017849 -6.318518 1.411672 -1.261550 0.000000 0.000000 0.000000 7.855047 -39.053721 3.269979 -122.895621 -31.614675 -8.423244 101.115070 10.467780 -9.948636 39.349379 5.755641 23.742892 5.833561 2.143680 -0.471979 0.000000 0.000000 0.000000 8.511518 -38.618265 2.775144 30.272256 -5.156151 -7.664429 12.186182 1.116530 -3.613465 0.627359 1.071679 1.046187 0.000000 0.000000 0.000000 12.441749 1.311917 -2.505258 -7.182653 17.959127 -13.586198 -26.641640 11.883583 4.195238 0.000000 0.000000 0.000000 13.634529 1.508652 -3.039585 14.380593 -14.691966 10.586021 0.189601 -2.613408 -4.362604 -62.556849 -6.353197 1.553935 46.652634 -16.389153 29.735321 0.000000 0.000000 0.000000 14.497719 1.553067 -2.899098 20.333226 21.280236 -13.233002 1.292457 3.815357 2.188085 -39.900384 -12.587164 -0.800894 -56.827727 54.733615 48.202510 0.000000 0.000000 0.000000 
1.099350 171.529816 22.268089 0.000000 0.000000 0.000000 7.193056 -36.401322 3.227660 -82.158795 -15.678201 18.819036 77.097222 0.208750 4.134859 5.619926 2.671546 -2.917211 -6.284622 1.427699 -1.272345 0.000000 0.000000 0.000000 7.727775 -39.086632 3.050804 -123.129910 -31.645332 -8.333878 101.323964 10.516987 -9.955995 39.463095 5.828172 24.059900 5.751009 2.151089 -0.433807 0.000000 0.000000 0.000000 8.466516 -38.746721 2.613152 30.451941 -5.121724 -7.687941 12.355968 1.072210 -3.622841 0.706263 1.183609 1.006109 0.000000 0.000000 0.000000 12.458094 1.261518 -2.502968 -7.087893 17.999603 -13.672436 -26.525045 11.986187 4.296901 0.000000 0.000000 0.000000 13.743928 1.441553 -3.077161 14.661925 -15.291689 11.204354 0.145575 -2.820275 -4.186086 -63.230948 -7.536882 0.569377 46.812354 -16.311057 29.879977 0.000000 0.000000 0.000000 14.602328 1.524946 -2.920462 20.682402 21.742543 -13.817949 1.319852 3.702021 2.203975 -40.012430 -10.761441 0.188137 -55.493013 54.488500 46.867283 0.000000 0.000000 0.000000 
1.146637 171.525574 22.412998 0.000000 0.000000 0.000000 7.070272 -36.628576 3.060221 -82.393187 -15.919829 18.871884 77.337590 0.285793 4.194450 5.722557 2.456654 -2.884976 -6.292935 1.449593 -1.285398 0.000000 0.000000 0.000000 7.559586 -39.186076 2.855555 -123.228524 -31.769136 -8.237084 101.387478 10.575881 -9.958604 39.497406 5.816636 24.298893 5.695991 2.170124 -0.430211 0.000000 0.000000 0.000000 8.311262 -38.975908 2.442340 30.698214 -5.119394 -7.704062 12.535995 1.020688 -3.629895 0.670926 1.238093 0.977342 0.000000 0.000000 0.000000 12.471613 1.205905 -2.502968 -6.992587 18.072648 -13.770333 -26.352029 12.027978 4.424486 0.000000 0.000000 0.000000 13.847023 1.364042 -3.110535 14.819420 -15.855113 11.327748 0.099711 -2.969216 -3.932007 -63.717175 -8.335544 -0.504927 47.016502 -16.395475 30.069245 0.000000 0.000000 0.000000 14.694093 1.486230 -2.932153 20.884466 22.295798 -13.989462 1.349914 3.572591 2.232903 -39.998623 -8.658896 1.527844 -53.398002 53.907767 44.679891 0.000000 0.000000 0.000000 
